<?xml version="1.0" encoding="utf-8"?>
<!-- Generator: Adobe Illustrator 20.1.0, SVG Export Plug-In . SVG Version: 6.00 Build 0)  -->
<svg version="1.1" id="Layer_2" xmlns="http://www.w3.org/2000/svg" xmlns:xlink="http://www.w3.org/1999/xlink" x="0px" y="0px"
	 viewBox="0 0 86 86" style="enable-background:new 0 0 86 86;" xml:space="preserve">
<style type="text/css">
	.st0{fill:none;stroke:#FFFFFF;stroke-width:3.6402;stroke-linecap:round;stroke-linejoin:round;stroke-miterlimit:10;}
	.st1{fill:none;stroke:#FFFFFF;stroke-width:3.6402;stroke-miterlimit:10;}
	.st2{fill:none;stroke:#FFFFFF;stroke-width:3.6402;stroke-linecap:square;stroke-miterlimit:10;}
</style>
<path class="st0" d="M3.1,3l8.7,10.4c0.3,0.3,0.4,0.7,0.4,1.1v31.8c0,0.2,0,0.5-0.1,0.7L7.8,57c-0.5,1.2,0.4,2.5,1.6,2.5h73.8"/>
<path class="st1" d="M15,14.3h55.9c2.5,0,4.2,2.4,3.4,4.7l-8.5,25.6c-0.5,1.5-1.9,2.5-3.4,2.5l-45.9-1c-1.7,0-3-1.4-3.1-3l-1.2-25.9
	C12.2,15.6,13.5,14.3,15,14.3z"/>
<circle class="st2" cx="14" cy="75.8" r="7.3"/>
<circle class="st2" cx="71" cy="74.6" r="7.3"/>
</svg>
